<svg id="Calque_1" data-name="Calque 1" xmlns="http://www.w3.org/2000/svg" xmlns:xlink="http://www.w3.org/1999/xlink" viewBox="0 0 552.75 520.57"><defs><style>.cls-1{fill:none;}.cls-2,.cls-6{fill:#e61f46;}.cls-2{stroke:#e61f46;stroke-miterlimit:10;stroke-width:6px;}.cls-3,.cls-5{fill:#f39568;}.cls-3{opacity:0.39;}.cls-4{fill:url(#Nouveau_motif_4);}.cls-7{fill:#4c4193;}.cls-8{fill:#4d4193;}</style><pattern id="Nouveau_motif_4" data-name="Nouveau motif 4" width="36.85" height="36.85" patternTransform="translate(-28.34 -20.13)" patternUnits="userSpaceOnUse" viewBox="0 0 36.85 36.85"><rect class="cls-1" width="36.85" height="36.85"/><line class="cls-2" x1="77" y1="33.55" x2="33.55" y2="77"/><line class="cls-2" x1="40.15" y1="33.55" x2="-3.3" y2="77"/><line class="cls-2" x1="3.3" y1="33.55" x2="-40.15" y2="77"/><line class="cls-2" x1="77" y1="-3.3" x2="33.55" y2="40.15"/><line class="cls-2" x1="40.15" y1="-3.3" x2="-3.3" y2="40.15"/><line class="cls-2" x1="3.3" y1="-3.3" x2="-40.15" y2="40.15"/><line class="cls-2" x1="77" y1="-40.15" x2="33.55" y2="3.3"/><line class="cls-2" x1="40.15" y1="-40.15" x2="-3.3" y2="3.3"/><line class="cls-2" x1="3.3" y1="-40.15" x2="-40.15" y2="3.3"/></pattern></defs><rect class="cls-3" x="347.42" y="134.22" width="205.33" height="205.33"/><rect class="cls-4" x="287.7" width="178.62" height="252.44"/><path class="cls-5" d="M195.52,342.91a66.3,66.3,0,1,1-66.3,66.3,66.37,66.37,0,0,1,66.3-66.3m0-40a106.3,106.3,0,1,0,106.3,106.3,106.3,106.3,0,0,0-106.3-106.3Z" transform="translate(-22.93 -16.78)"/><path class="cls-6" d="M195.52,262.91a66.3,66.3,0,1,1,66.3-66.3h40a106.3,106.3,0,1,0-106.3,106.3Z" transform="translate(-22.93 -16.78)"/><path class="cls-7" d="M408.11,90.32A106.29,106.29,0,0,0,301.82,196.61h40a66.3,66.3,0,1,1,66.29,66.3h0v40h0a106.3,106.3,0,1,0,0-212.59Z" transform="translate(-22.93 -16.78)"/><path class="cls-8" d="M129.22,196.61h-40a66.37,66.37,0,0,1-66.29,66.3v40A106.3,106.3,0,0,0,129.22,196.61Z" transform="translate(-22.93 -16.78)"/><circle class="cls-8" cx="189.74" cy="392.03" r="2.84"/><circle class="cls-8" cx="206.41" cy="392.03" r="2.84"/><circle class="cls-8" cx="222.08" cy="392.03" r="2.84"/><circle class="cls-8" cx="237.76" cy="392.03" r="2.84"/><circle class="cls-8" cx="253.43" cy="392.03" r="2.84"/><circle class="cls-8" cx="269.1" cy="392.03" r="2.84"/><circle class="cls-8" cx="189.84" cy="407.7" r="2.84"/><circle class="cls-8" cx="206.51" cy="407.7" r="2.84"/><circle class="cls-8" cx="222.18" cy="407.7" r="2.84"/><circle class="cls-8" cx="237.85" cy="407.7" r="2.84"/><circle class="cls-8" cx="253.52" cy="407.7" r="2.84"/><circle class="cls-8" cx="269.2" cy="407.7" r="2.84"/><circle class="cls-8" cx="189.84" cy="423.46" r="2.84"/><circle class="cls-8" cx="206.51" cy="423.46" r="2.84"/><circle class="cls-8" cx="222.18" cy="423.46" r="2.84"/><circle class="cls-8" cx="237.85" cy="423.46" r="2.84"/><circle class="cls-8" cx="253.52" cy="423.46" r="2.84"/><circle class="cls-8" cx="269.2" cy="423.46" r="2.84"/><circle class="cls-8" cx="189.74" cy="439.21" r="2.84"/><circle class="cls-8" cx="206.41" cy="439.21" r="2.84"/><circle class="cls-8" cx="222.08" cy="439.21" r="2.84"/><circle class="cls-8" cx="237.76" cy="439.21" r="2.84"/><circle class="cls-8" cx="253.43" cy="439.21" r="2.84"/><circle class="cls-8" cx="269.1" cy="439.21" r="2.84"/><circle class="cls-8" cx="284.87" cy="391.95" r="2.84"/><circle class="cls-8" cx="300.54" cy="391.95" r="2.84"/><circle class="cls-8" cx="284.96" cy="407.62" r="2.84"/><circle class="cls-8" cx="300.64" cy="407.62" r="2.84"/><circle class="cls-8" cx="284.96" cy="423.38" r="2.84"/><circle class="cls-8" cx="300.64" cy="423.38" r="2.84"/><circle class="cls-8" cx="284.87" cy="439.13" r="2.84"/><circle class="cls-8" cx="300.54" cy="439.13" r="2.84"/><circle class="cls-8" cx="189.74" cy="454.89" r="2.84"/><circle class="cls-8" cx="206.41" cy="454.89" r="2.84"/><circle class="cls-8" cx="222.08" cy="454.89" r="2.84"/><circle class="cls-8" cx="237.76" cy="454.89" r="2.84"/><circle class="cls-8" cx="253.43" cy="454.89" r="2.84"/><circle class="cls-8" cx="269.1" cy="454.89" r="2.84"/><circle class="cls-8" cx="189.74" cy="470.56" r="2.84"/><circle class="cls-8" cx="206.41" cy="470.56" r="2.84"/><circle class="cls-8" cx="222.08" cy="470.56" r="2.84"/><circle class="cls-8" cx="237.76" cy="470.56" r="2.84"/><circle class="cls-8" cx="253.43" cy="470.56" r="2.84"/><circle class="cls-8" cx="269.1" cy="470.56" r="2.84"/><circle class="cls-8" cx="284.87" cy="454.8" r="2.84"/><circle class="cls-8" cx="300.54" cy="454.8" r="2.84"/><circle class="cls-8" cx="284.87" cy="470.48" r="2.84"/><circle class="cls-8" cx="300.54" cy="470.48" r="2.84"/><circle class="cls-8" cx="189.76" cy="486.31" r="2.84"/><circle class="cls-8" cx="206.43" cy="486.31" r="2.84"/><circle class="cls-8" cx="222.1" cy="486.31" r="2.84"/><circle class="cls-8" cx="237.77" cy="486.31" r="2.84"/><circle class="cls-8" cx="253.45" cy="486.31" r="2.84"/><circle class="cls-8" cx="269.12" cy="486.31" r="2.84"/><circle class="cls-8" cx="189.76" cy="501.98" r="2.84"/><circle class="cls-8" cx="206.43" cy="501.98" r="2.84"/><circle class="cls-8" cx="222.1" cy="501.98" r="2.84"/><circle class="cls-8" cx="237.77" cy="501.98" r="2.84"/><circle class="cls-8" cx="253.45" cy="501.98" r="2.84"/><circle class="cls-8" cx="269.12" cy="501.98" r="2.84"/><circle class="cls-8" cx="284.89" cy="486.23" r="2.84"/><circle class="cls-8" cx="300.56" cy="486.23" r="2.84"/><circle class="cls-8" cx="284.89" cy="501.9" r="2.84"/><circle class="cls-8" cx="300.56" cy="501.9" r="2.84"/><circle class="cls-8" cx="189.83" cy="517.74" r="2.84"/><circle class="cls-8" cx="206.51" cy="517.74" r="2.84"/><circle class="cls-8" cx="222.18" cy="517.74" r="2.84"/><circle class="cls-8" cx="237.85" cy="517.74" r="2.84"/><circle class="cls-8" cx="253.52" cy="517.74" r="2.84"/><circle class="cls-8" cx="269.2" cy="517.74" r="2.84"/><circle class="cls-8" cx="284.96" cy="517.66" r="2.84"/><circle class="cls-8" cx="300.64" cy="517.66" r="2.84"/></svg>