<svg xmlns="http://www.w3.org/2000/svg" viewBox="0 0 971.394 1078.955">
  <path d="M2994.11-.133S2823.59,381.858,3088.97,435.1c111.34,22.338,105.526-82.5,278.7-59.067,141.429,19.134,197.168,145.589,98.168,279.53-39.165,52.988-107.32,130.614-83.193,199.664,57,163.13,234.538,39.288,321.561,117.363,89.017,79.864,207.367,106.232,207.367,106.232V988.686s-56.946-11.529-146.205-78.594C3611.46,794.454,3524.1,899.126,3483.7,842.6c-40.825-57.113,43.407-111.577,82.789-162.773,98.905-128.577,19.14-381.576-135.081-406.565-149.519-24.228-202.672,92.255-317.415,69.754-239.011-46.869-52.4-343.145-52.4-343.145Z" transform="translate(-2940.179 0.133)"/>
</svg>
