<svg xmlns="http://www.w3.org/2000/svg" viewBox="0 0 842.967 902.889">
  <path d="M3000.75-.133s-138.9,210.172,34.557,247.153c123.757,26.385,203.031-73.767,421.529-44.206,140.048,18.948,207.731,98.453,147.674,188.538-84.113,126.17,93.187,159.475,117.313,228.526,30.942,88.556-90.052,149.393-11.891,234.242,19.545,21.218,81.144,48.636,81.144,48.636V869.479s-50.927-17.682-63.868-65.915c-28.158-104.951,64.189-114.43,37.023-196.182-22.7-68.3-175.771-74.953-92.954-193.913,70.573-101.372-36.35-227.245-157.94-244.524-200.422-28.481-285.391,61.269-410.452,38.3C2934.04,176.232,3040.37-.133,3040.37-.133Z" transform="translate(-2948.11 0.133)"/>
</svg>
